<?xml version="1.0" encoding="utf-8"?>
<!-- Generator: Adobe Illustrator 22.1.0, SVG Export Plug-In . SVG Version: 6.00 Build 0)  -->
<svg version="1.1" id="Calque_1" xmlns="http://www.w3.org/2000/svg" xmlns:xlink="http://www.w3.org/1999/xlink" x="292px" y="150px"
	 viewBox="0 0 566.9 291.2" style="enable-background:new 0 0 566.9 291.2;" xml:space="preserve">
<style type="text/css">
	.st0{fill:#8DC63F;}
	.st1{fill:#00A651;}
	.st2{fill:#FFFFFF;}
</style>
<g>
	<g>
		<path class="st0" d="M174.7,61.5c-5.4,14.6-16.7,45.6-16.7,53.4c0,5.6,3.9,8.7,8.7,8.7c1.4,0,2.5,1,2.5,2.4s-1.1,2.5-2.5,2.5
			c-8.6,0-13.7-5.7-13.7-13.6c0-9,11.7-40.3,17.1-55.1c5.1-14.1,8.9-23.3,8.9-31.9c0-8.2-3.9-11.6-11.2-11.6
			c-9.1,0-18.7,10.7-24.7,20.1c-8.2,27.4-9.7,32.2-21.1,64.7c-0.4,1.1-1.4,1.7-2.5,1.7c-2,0-3-1.9-2.5-3.5
			c7.1-20,14.5-42.3,20.2-61.6c1.2-4.2,1.9-7.9,1.9-10.9c0-6.4-2.3-11.5-7.9-11.5c-10.4,0-23.7,19-33.2,32.7l-9.4,28.7
			c-6.6,20.5-10,27.2-18.2,27.2c-4.6,0-6.6-3.5-6.6-7.9c0.1-7,6.7-17.8,17.7-32.2c0.8-1,11.5-17.7,11.7-18.2l9.7-29.7
			c-10.3,7.5-23.2,17.6-37.8,17.6c-11.6,0-20-7.7-18.7-19.8c0.1-1.2,1.4-2.2,2.6-2.2c1.6,0,2.6,1.4,2.6,2.9c0,9.4,5.2,14,13.5,14
			c11.5,0,24.6-9.4,35-17c2.2-1.6,4.5-3.1,6.2-4.4c0.5-0.4,1-0.5,1.5-0.5c2.4,0,2.9,2.2,2.5,3.5l-7,21.5
			c10.1-12.8,17.6-21.3,27.9-21.3c8.1,0,12.9,7.2,12.9,16c6.7-8.2,14.7-14.7,23.4-14.7c10.6,0,16.1,5.6,16.1,16.5
			C184.1,36.8,179.9,47,174.7,61.5z M86.8,65.5c-0.3,0.5-0.3,0.5-0.9,1.4C74.6,83.8,69.2,89,69.1,96.5c0,1.2,0.5,2,1.4,2
			c5.1,0,7.7-6.4,13.2-23.4L86.8,65.5z"/>
		<path class="st0" d="M236.4,76.2c0,0.4-0.1,0.7-0.2,1.1l-0.1,0.4c-4.8,10.5-11.5,25.8-22.7,25.8c-6,0-9-4.4-9-10.5
			c-5,7-10.2,10.5-15.6,10.5c-7,0-10.2-6-10.2-13.5c0-16.3,12.6-45.5,27.6-45.5c5.2,0,9.1,2.1,11.4,6.6c0.7-2.1,1.5-4,2.1-5.6
			c0.4-1,1.4-1.6,2.5-1.6c2,0,3,2,2.4,3.5l-6.2,16.7c-4.5,12.6-8.6,23.4-8.6,28.9c0,3.7,1.1,5.2,3.7,5.2c7.7,0,13.7-13.5,17.8-22.7
			l0.1-0.4c0.5-1,1.4-1.6,2.4-1.6c0.4,0,0.8,0.1,1.1,0.2C235.8,74.3,236.4,75.2,236.4,76.2z M211.1,66.8l3-8c-0.2-5.7-3.5-9.1-8-9.1
			C194.6,50,184,76.8,183.8,89.2c0,5.5,1.1,9.1,4.9,9.1C198.7,98.3,206.1,79.5,211.1,66.8z"/>
		<path class="st0" d="M282.3,76.2c0,0.4-0.1,0.7-0.2,1.1c-8.1,18.6-14.3,26.2-22.8,26.2h-0.1c-5.9,0-8.9-4.4-8.9-10.5
			c0-2.5,0.4-5,1.2-8.1c1-4,6.5-20.6,7.6-23.3c-9.5-3.1-10.8-3.6-13.6-5c-0.5,1.5-1.4,3.2-11.4,25.1c-0.5,1-1.4,1.5-2.3,1.5
			c-0.5,0-0.9-0.1-1.2-0.2c-0.9-0.5-1.5-1.4-1.5-2.4c0-0.4,0.1-0.7,0.3-1.1l10-21.7l1.5-3.7c-3.7-2.6-6.4-5.9-6.4-10.5
			c0-5.1,3.6-8.1,7.6-8.1c4.5,0,7.2,3.2,7.2,8.2c0,2-0.5,3.1-2,8c3.5,1.7,7.7,3.1,11.3,4.4c1.7,0.5,3.4,1,4.7,1.5
			c1.4,0.5,2,2.1,1.5,3.6c-1.6,4.1-7.6,22-8.4,25.1c-0.8,2.6-1,4.7-1.1,6.9c0,3.1,1,5.2,3.7,5.2c6.1,0,10.8-7,18-23.1
			c0.5-1,1.4-1.6,2.4-1.6c0.4,0,0.8,0.1,1.1,0.2C281.7,74.3,282.3,75.2,282.3,76.2z M242.2,40.6c-1.6,0-2.4,1-2.4,2.4
			c0,2,1.1,4.2,3,5.7c0.6-1.7,1.4-4,1.4-5.2C244.1,41.4,243.2,40.6,242.2,40.6z"/>
		<path class="st0" d="M305.3,76.2c0,0.4-0.1,0.7-0.2,1.1c-6,13.5-12.5,26.2-23,26.2c-6,0-9.2-4.7-9-10.5
			c0.4-9.7,9.2-32.6,14.7-46.8c0.4-1.1,1.4-1.7,2.4-1.7c1.6,0,3.2,1.2,2.5,3.4c-12.1,34.1-14.3,39.8-14.3,45.1
			c0,3.6,1.1,5.2,3.7,5.2c7.7,0,13.5-12.8,18.1-23.1c0.5-1,1.5-1.6,2.5-1.6c0.4,0,0.6,0.1,1,0.2C304.7,74.2,305.3,75.2,305.3,76.2z
			 M291.1,33.9c0-2.4,2-4.2,4.4-4.2c2.4,0,4.2,1.9,4.2,4.2s-1.9,4.2-4.2,4.2C293.1,38.1,291.1,36.3,291.1,33.9z"/>
		<path class="st0" d="M344.8,76.3c0,0.4-0.1,0.6-0.2,1c-8.1,18-17.6,26.2-30.2,26.2c-10.4,0-16.6-6.9-16.3-17.1
			c0.7-16,13.7-41.9,28.4-41.9c6.2,0,10.6,3.2,10.6,9.2c0,13.2-18.6,21.2-32.4,24.6c-0.9,3.2-1.2,5.6-1.4,8.2
			C303,93.6,307,98,314.5,98.3c10.2,0.3,18.2-7,25.2-23.1c0.6-1.2,2.1-1.9,3.5-1.4C344.2,74.3,344.8,75.3,344.8,76.3z M331.9,53.7
			c0-3.4-2.6-4-5.4-4c-8.6,0-15.8,13-19.8,22.6C317,69.1,331.9,63,331.9,53.7z"/>
	</g>
	<g>
		<path class="st0" d="M141.2,175.8c0,0.4-0.1,0.6-0.2,1c-8.1,18-17.6,26.2-30.2,26.2c-10.4,0-16.6-6.9-16.3-17.1
			c0.8-16,13.7-41.9,28.4-41.9c6.2,0,10.6,3.2,10.6,9.2c0,13.2-18.6,21.2-32.4,24.6c-0.9,3.2-1.2,5.6-1.4,8.2
			c-0.3,7.1,3.7,11.5,11.2,11.7c10.2,0.3,18.2-7,25.2-23.1c0.6-1.2,2.1-1.9,3.5-1.4C140.6,173.8,141.2,174.8,141.2,175.8z
			 M128.3,153.2c0-3.4-2.6-4-5.4-4c-8.6,0-15.8,13-19.8,22.6C113.4,168.5,128.3,162.4,128.3,153.2z"/>
		<path class="st0" d="M187.2,175.6c0,0.4-0.1,0.8-0.3,1.1c-8.1,18.6-14.3,26.2-22.8,26.2H164c-5.9,0-8.9-4.4-8.9-10.5
			c0-2.5,0.4-5,1.2-8.1c1-4,6.5-20.6,7.6-23.3c-9.5-3.1-10.9-3.6-13.6-5c-0.5,1.5-1.4,3.2-11.4,25.1c-0.5,1-1.4,1.5-2.2,1.5
			c-0.5,0-0.9-0.1-1.2-0.2c-0.9-0.5-1.5-1.4-1.5-2.4c0-0.4,0.1-0.7,0.3-1.1l10-21.7l1.5-3.7c-3.7-2.6-6.4-5.9-6.4-10.5
			c0-5.1,3.6-8.1,7.6-8.1c4.5,0,7.2,3.2,7.2,8.2c0,2-0.5,3.1-2,8c3.5,1.7,7.7,3.1,11.4,4.4c1.7,0.5,3.4,1,4.7,1.5
			c1.4,0.5,2,2.1,1.5,3.6c-1.6,4.1-7.6,22-8.4,25.1c-0.8,2.6-1,4.7-1.1,6.9c0,3.1,1,5.2,3.7,5.2c6.1,0,10.8-7,18-23.1
			c0.5-1,1.4-1.6,2.4-1.6c0.4,0,0.7,0.1,1.1,0.3C186.5,173.8,187.2,174.6,187.2,175.6z M147,140.1c-1.6,0-2.4,1-2.4,2.4
			c0,2,1.1,4.2,3,5.7c0.6-1.7,1.4-4,1.4-5.2C149,140.8,148,140.1,147,140.1z"/>
		<path class="st0" d="M237.1,175.5c0,0.4-0.1,0.6-0.3,1c-7.5,17.6-17.3,26.2-27.1,30.7c-6.6,18.2-15.7,28.2-27.6,28.2
			c-7.9,0-13.1-4.1-13.1-12c0-8.5,5.7-13.5,19.3-15.8c5.2-0.9,11.1-1.7,17.2-4.4c1.9-6.7,2.9-13,0.5-17.2
			c-7.6,3.5-15.5,2.9-15.5-3.9c0-7.9,9.7-8.4,16.5-3c5.9-4.2,8-12.1,8-19.1c0-6.5-2.6-10.8-8.5-10.8c-8.6,0-15.3,17.5-21.2,30.7
			l-0.5,1.1c-0.5,1-1.2,1.6-2.2,1.6c-1.4,0-2.7-1.1-2.7-2.6c0-0.4,0.1-0.7,0.3-1.1c7.1-17,14.5-34.9,26.4-34.9
			c9,0,13.7,6.5,13.7,16.1c0,8-2.9,17.3-9.7,23.2c2.7,4.5,2.6,10.6,1.4,16.7c7.2-4.6,14.3-12.2,20-25.4c0.5-1,1.4-1.6,2.4-1.6
			c0.4,0,0.7,0.1,1.1,0.3C236.4,173.5,237.1,174.5,237.1,175.5z M189.3,212.8c-10.6,1.6-15,5-15,10.5c0,3.5,3.1,7,7.7,7
			c8.1,0,14.8-7.2,20.9-20.5C198.2,211.3,193.5,212.1,189.3,212.8z M196,182.1c0,1.5,3.9,1.1,6.6,0C198.9,179.8,196,179.9,196,182.1
			z"/>
		<path class="st0" d="M287.2,175.6c0,0.4-0.1,0.8-0.3,1.1l-0.1,0.4c-4.7,10.5-11.5,25.8-22.7,25.8c-6,0-9-4.4-9-10.5
			c-5,7-10.2,10.5-15.6,10.5c-7,0-10.2-6-10.2-13.5c0-16.3,12.6-45.5,27.6-45.5c5.2,0,9.1,2.1,11.4,6.6c0.8-2.1,1.5-4,2.1-5.6
			c0.4-1,1.4-1.6,2.5-1.6c2,0,3,2,2.4,3.5l-6.2,16.7c-4.5,12.6-8.6,23.4-8.6,28.9c0,3.7,1.1,5.2,3.7,5.2c7.7,0,13.7-13.5,17.8-22.7
			l0.1-0.4c0.5-1,1.4-1.6,2.4-1.6c0.4,0,0.8,0.1,1.1,0.3C286.6,173.8,287.2,174.6,287.2,175.6z M261.9,166.3l3-8
			c-0.2-5.7-3.5-9.1-8-9.1c-11.5,0.2-22.1,27.1-22.3,39.4c0,5.5,1.1,9.1,4.9,9.1C249.6,197.7,256.9,179,261.9,166.3z M262,132.2
			c0,2.4-2,4.2-4.4,4.2c-2.4,0-4.2-1.9-4.2-4.2c0-2.4,1.9-4.4,4.2-4.4C260,127.9,262,129.9,262,132.2z M275.8,132.2
			c0,2.4-2,4.2-4.4,4.2c-2.4,0-4.2-1.9-4.2-4.2c0-2.4,1.9-4.4,4.2-4.4C273.8,127.9,275.8,129.9,275.8,132.2z"/>
		<path class="st0" d="M337,175.8c0,0.2-0.1,0.6-0.3,1c-8.5,18.8-14.3,26.2-22.8,26.2c-6.1,0-9-4.4-9-10.5c0-11.5,9.7-27.4,9.7-37
			c0-3.6-1.6-6.5-6.5-6.5c-3.1,0-6.6,2.9-9.9,6.9c-7.8,10-9,14.8-20.1,45.3c-0.5,1.5-2,2.1-3.4,1.7c-1.4-0.5-2.1-2-1.6-3.4
			c11.9-32.9,22.6-62.6,26.7-74.7c0.4-1,1.4-1.6,2.5-1.6c1.9,0,3.1,1.9,2.5,3.5c-1.1,3.2-3.9,11.1-8.1,23c3.6-3.6,7.4-5.9,11.4-5.9
			c8.9,0,11.7,5.1,11.7,11.7c0,9.5-9.7,28.1-9.7,37c0,3.6,1.1,5.2,3.7,5.2c6,0,10.8-7,18-23.1c0.5-1,1.4-1.6,2.4-1.6
			c0.4,0,0.8,0.1,1.1,0.3C336.4,173.8,337,174.6,337,175.8z"/>
		<path class="st0" d="M362.7,175.6c0,0.4-0.1,0.8-0.2,1.1c-7.2,15.6-14.2,26.2-25.7,26.2c-6,0-9.2-4.5-9.2-10.5
			c0-3.6,1.2-8.1,4.4-18c3.4-9.9,7.1-20.3,10.7-30.7l6.5-19c0.5-1.4,2-2,3.4-1.6c1.4,0.5,2.1,2,1.6,3.4l-6.5,19
			c-3.5,10-7.1,20-10.7,30.6c-2.7,8.5-4.1,14.1-4.1,16.3c0,3.4,1.5,5.2,4,5.2c9,0,15-10.3,20.8-23.2c0.5-0.9,1.5-1.5,2.5-1.5
			c0.4,0,0.8,0.1,1.1,0.3C362.1,173.8,362.7,174.6,362.7,175.6z"/>
		<path class="st0" d="M388.7,175.6c0,0.4-0.1,0.8-0.3,1.1c-7.2,15.6-14.2,26.2-25.7,26.2c-6,0-9.2-4.5-9.2-10.5
			c0-4.6,3.1-15.5,7.1-25.7l6.4-17.8h-7.9c-1.5,0-2.6-1.1-2.6-2.6c0-1.4,1.1-2.6,2.6-2.6h9.6c0.2-0.5,6.4-18.1,6.5-18.6
			c0.4-1.1,1.4-1.7,2.5-1.7c1.9,0,3.1,1.9,2.5,3.5c0.4-0.7-5,14.5-5.9,16.8h8.4c1.5,0,2.6,1.2,2.6,2.6c0,1.5-1.1,2.6-2.6,2.6h-10.2
			c-0.7,2.4-2.9,8.1-7,19.7c-5.1,14.5-6.7,20.2-6.7,23.8c0,3.4,1.5,5.2,4,5.2c9,0,15-10.3,20.8-23.2c0.5-0.9,1.5-1.5,2.5-1.5
			c0.4,0,0.8,0.1,1.1,0.3C388.1,173.8,388.7,174.6,388.7,175.6z"/>
	</g>
	<g>
		<g>
			<path class="st1" d="M458.9,80c0,0,24-67.7,105.1-17C564,63,486,94.5,458.9,80z"/>
		</g>
		<g>
			<path class="st1" d="M455.2,80.2c0,0,12.3-59.2-92.6-55.6C362.6,24.6,395.3,65.8,455.2,80.2z"/>
		</g>
		<g>
			<path class="st1" d="M451,79.1c0,0,0.9,6.2,1.5,8.5c0.6,2.3,1.5,7.4,0.3,12.7c-1.2,5.2-10.5,58.3,5.3,144.7l7.8-1.6
				c0,0-8.8-42.1-10.1-73.8c-1.3-31.3,0.1-50,2.9-78.7c0,0,2.3-7.8,6.1-8.7l-5.7-2.2c0,0-0.2,1.9-0.8,3.1s-2.6,3.5-3-2.9
				C454.8,73.8,450.6,76.7,451,79.1z"/>
		</g>
		<g>
			<path class="st2" d="M458.9,80c0,0,34.6-25.6,74.4-19.4C533.4,60.6,491.6,62.9,458.9,80z"/>
		</g>
		<g>
			<path class="st2" d="M455.2,80.2c0,0-8.5-29-45.8-37.3C409.4,42.9,437.7,54.2,455.2,80.2z"/>
		</g>
	</g>
	<g>
		<path class="st1" d="M46.2,284.6c-3.8,0-7.6-1.2-10.5-3.6c-2.6-2.1-3.1-4.4-3-6c0.3-4.7,5.8-8.3,6.4-8.7
			c0.8-0.5,8.3-5.5,24.5-10.8c4.3-21.4-3.3-37.7-22.8-48.6c-38.6-21.6-30.2-48.5-29.8-49.7c0.5-1.4,2-2.2,3.5-1.7
			c1.4,0.5,2.2,2,1.7,3.4c-0.3,1-7.2,23.9,27.3,43.2c15,8.4,30.4,23.9,26,51.5c28.8-8.5,79.7-16.9,159.9-9
			c135.3,13.2,265.5-8.9,266.8-9.2c1.6-0.2,2.9,0.7,3.2,2.2c0.3,1.5-0.7,2.9-2.2,3.2c-1.3,0.2-132.2,22.5-268.3,9.2
			c-81.7-8-133,1.3-160.7,9.9c-0.6,2.4-1.4,4.9-2.2,7.4l-0.3,0.7c-2.8,8.2-8,13.8-14.6,15.7C49.5,284.4,47.9,284.6,46.2,284.6z
			 M62,262.1c-13.5,4.7-19.7,8.7-19.9,8.9c-1.6,1-3.8,3.1-3.9,4.4c0,0.2,0,0.6,0.9,1.4c2.8,2.2,6.8,3,10.5,1.9
			c4.9-1.4,8.8-5.8,11-12.2l0.3-0.8C61.3,264.5,61.6,263.3,62,262.1z"/>
	</g>
</g>
</svg>
