<?xml version="1.0" encoding="utf-8"?>
<!-- Generator: Adobe Illustrator 22.1.0, SVG Export Plug-In . SVG Version: 6.00 Build 0)  -->
<svg version="1.1" id="Calque_1" xmlns="http://www.w3.org/2000/svg" xmlns:xlink="http://www.w3.org/1999/xlink" x="0px" y="0px"
	 viewBox="0 0 566.9 291.2" style="enable-background:new 0 0 566.9 291.2;" xml:space="preserve">
<style type="text/css">
	.st0{fill:#8DC63F;}
	.st1{fill:#00A651;}
	.st2{fill:#FFFFFF;}
</style>
<g>
	<g>
		<path class="st0" d="M160.5,66c-5.3,14.3-16.4,44.9-16.4,52.5c0,5.5,3.8,8.6,8.6,8.6c1.3,0,2.4,1,2.4,2.3s-1.1,2.5-2.4,2.5
			c-8.5,0-13.5-5.6-13.5-13.4c0-8.8,11.5-39.6,16.8-54.2c5-13.9,8.7-22.9,8.7-31.4c0-8.1-3.8-11.4-11-11.4c-9,0-18.4,10.5-24.3,19.7
			c-8.1,27-9.6,31.6-20.7,63.6c-0.4,1.1-1.3,1.7-2.5,1.7c-2,0-2.9-1.8-2.5-3.4c7-19.6,14.2-41.6,19.9-60.6c1.2-4.2,1.8-7.7,1.8-10.7
			c0-6.3-2.2-11.3-7.7-11.3c-10.2,0-23.3,18.6-32.6,32.1l-9.2,28.2c-6.5,20.1-9.8,26.7-17.9,26.7c-4.5,0-6.5-3.4-6.5-7.7
			c0.1-6.9,6.6-17.5,17.4-31.6c0.7-1,11.3-17.4,11.5-17.9L90,21.2c-10.2,7.4-22.8,17.3-37.1,17.3c-11.4,0-19.6-7.6-18.4-19.5
			c0.1-1.2,1.3-2.2,2.6-2.2c1.6,0,2.6,1.3,2.6,2.8c0,9.2,5.2,13.7,13.2,13.7c11.3,0,24.2-9.2,34.5-16.7c2.2-1.6,4.4-3.1,6.1-4.3
			c0.5-0.4,1-0.5,1.5-0.5c2.3,0,2.8,2.2,2.5,3.4l-6.9,21.1c9.9-12.6,17.3-21,27.5-21c8,0,12.6,7.1,12.6,15.7
			c6.6-8.1,14.5-14.5,23.1-14.5c10.4,0,15.8,5.5,15.8,16.2C169.7,41.7,165.6,51.8,160.5,66z M74,69.9c-0.2,0.5-0.2,0.5-0.9,1.4
			C62,87.9,56.7,93.1,56.6,100.4c0,1.2,0.5,2,1.4,2c5,0,7.6-6.3,13-23.1L74,69.9z"/>
		<path class="st0" d="M221.1,80.5c0,0.4-0.1,0.7-0.2,1.1l-0.1,0.4c-4.7,10.3-11.3,25.4-22.3,25.4c-5.9,0-8.8-4.3-8.8-10.3
			c-4.9,6.9-10.1,10.3-15.3,10.3c-6.9,0-10.1-5.9-10.1-13.2c0-16.1,12.4-44.8,27.1-44.8c5.1,0,8.9,2.1,11.2,6.5
			c0.7-2.1,1.5-3.9,2.1-5.5c0.4-1,1.3-1.6,2.5-1.6c2,0,2.9,2,2.3,3.4l-6.1,16.4c-4.4,12.4-8.5,23.1-8.5,28.4c0,3.7,1.1,5.1,3.7,5.1
			c7.6,0,13.5-13.2,17.5-22.3l0.1-0.4c0.5-1,1.3-1.6,2.3-1.6c0.4,0,0.7,0.1,1.1,0.2C220.5,78.6,221.1,79.5,221.1,80.5z M196.2,71.3
			l2.9-7.8c-0.2-5.6-3.4-9-7.8-9c-11.3,0.2-21.7,26.6-22,38.7c0,5.4,1.1,9,4.8,9C184.1,102.2,191.3,83.8,196.2,71.3z"/>
		<path class="st0" d="M266.3,80.5c0,0.4-0.1,0.7-0.2,1.1c-8,18.3-14.1,25.7-22.4,25.7h-0.1c-5.8,0-8.7-4.3-8.7-10.3
			c0-2.5,0.4-4.9,1.2-8c1-3.9,6.4-20.2,7.5-22.9c-9.3-3.1-10.7-3.6-13.4-4.9c-0.5,1.5-1.3,3.2-11.2,24.6c-0.5,1-1.3,1.5-2.2,1.5
			c-0.5,0-0.9-0.1-1.2-0.2c-0.9-0.5-1.5-1.3-1.5-2.3c0-0.4,0.1-0.7,0.2-1.1l9.8-21.3l1.5-3.7c-3.7-2.6-6.3-5.8-6.3-10.3
			c0-5,3.6-8,7.5-8c4.4,0,7.1,3.2,7.1,8.1c0,2-0.5,3.1-2,7.8c3.4,1.7,7.6,3.1,11.2,4.3c1.7,0.5,3.3,1,4.7,1.5c1.3,0.5,2,2.1,1.5,3.6
			c-1.6,4-7.5,21.6-8.2,24.6c-0.7,2.6-1,4.7-1.1,6.7c0,3.1,1,5.1,3.7,5.1c6,0,10.7-6.9,17.7-22.7c0.5-1,1.3-1.6,2.3-1.6
			c0.4,0,0.7,0.1,1.1,0.2C265.6,78.6,266.3,79.5,266.3,80.5z M226.8,45.5c-1.6,0-2.3,1-2.3,2.3c0,2,1.1,4.2,2.9,5.6
			c0.6-1.7,1.3-3.9,1.3-5.2C228.7,46.2,227.8,45.5,226.8,45.5z"/>
		<path class="st0" d="M288.8,80.5c0,0.4-0.1,0.7-0.2,1.1c-5.9,13.2-12.3,25.7-22.6,25.7c-5.9,0-9.1-4.7-8.8-10.3
			c0.4-9.6,9.1-32,14.5-46c0.4-1.1,1.3-1.7,2.3-1.7c1.6,0,3.2,1.2,2.5,3.3c-11.9,33.5-14.1,39.1-14.1,44.4c0,3.6,1.1,5.1,3.7,5.1
			c7.6,0,13.2-12.6,17.8-22.7c0.5-1,1.5-1.6,2.4-1.6c0.4,0,0.6,0.1,1,0.2C288.2,78.5,288.8,79.5,288.8,80.5z M274.9,38.9
			c0-2.3,2-4.2,4.3-4.2s4.2,1.8,4.2,4.2s-1.8,4.2-4.2,4.2S274.9,41.2,274.9,38.9z"/>
		<path class="st0" d="M327.7,80.6c0,0.4-0.1,0.6-0.2,1c-8,17.7-17.3,25.7-29.7,25.7c-10.2,0-16.3-6.7-16.1-16.8
			c0.7-15.7,13.5-41.2,28-41.2c6.1,0,10.4,3.2,10.4,9.1c0,13-18.3,20.8-31.9,24.2c-0.9,3.2-1.2,5.5-1.3,8.1c-0.2,7,3.7,11.3,11,11.5
			c10.1,0.2,17.9-6.9,24.8-22.7c0.6-1.2,2.1-1.8,3.4-1.3C327.1,78.6,327.7,79.6,327.7,80.6z M315,58.4c0-3.3-2.6-3.9-5.3-3.9
			c-8.5,0-15.6,12.7-19.5,22.2C300.4,73.5,315,67.5,315,58.4z"/>
	</g>
	<g>
		<path class="st0" d="M167.5,180.1c0,0.4-0.1,0.7-0.2,1.1c-8,18.3-14.1,25.7-22.4,25.7h-0.1c-5.8,0-8.7-4.3-8.7-10.3
			c0-2.4,0.4-4.9,1.2-8c1-3.9,6.4-20.2,7.5-22.9c-9.3-3.1-10.7-3.6-13.4-4.9c-0.5,1.5-1.3,3.2-11.2,24.6c-0.5,1-1.3,1.5-2.2,1.5
			c-0.5,0-0.9-0.1-1.2-0.2c-0.9-0.5-1.5-1.4-1.5-2.3c0-0.4,0.1-0.7,0.2-1.1l9.8-21.3l1.5-3.7c-3.7-2.6-6.2-5.8-6.2-10.3
			c0-5,3.6-8,7.5-8c4.4,0,7.1,3.2,7.1,8.1c0,2-0.5,3.1-2,7.8c3.4,1.7,7.6,3.1,11.2,4.3c1.7,0.5,3.3,1,4.7,1.5c1.3,0.5,2,2.1,1.5,3.6
			c-1.6,4.1-7.5,21.6-8.2,24.6c-0.7,2.6-1,4.7-1.1,6.7c0,3.1,1,5.2,3.7,5.2c6,0,10.7-6.9,17.7-22.7c0.5-1,1.3-1.6,2.3-1.6
			c0.4,0,0.7,0.1,1.1,0.2C166.8,178.3,167.5,179.2,167.5,180.1z M128,145.2c-1.6,0-2.3,1-2.3,2.3c0,2,1.1,4.2,2.9,5.6
			c0.6-1.7,1.3-3.9,1.3-5.2C129.9,145.9,129,145.2,128,145.2z"/>
		<path class="st0" d="M216.9,180.1c0,0.4-0.1,0.7-0.2,1.1l-0.1,0.4c-4.7,10.3-11.3,25.4-22.3,25.4c-5.9,0-8.8-4.3-8.8-10.3
			c-4.9,6.9-10.1,10.3-15.3,10.3c-6.9,0-10.1-5.9-10.1-13.2c0-16.1,12.4-44.8,27.1-44.8c5.2,0,9,2.1,11.2,6.5
			c0.7-2.1,1.5-3.9,2.1-5.5c0.4-1,1.3-1.6,2.4-1.6c2,0,2.9,2,2.3,3.4l-6.1,16.4c-4.4,12.4-8.5,23.1-8.5,28.4c0,3.7,1.1,5.2,3.7,5.2
			c7.6,0,13.5-13.2,17.5-22.3l0.1-0.4c0.5-1,1.3-1.6,2.3-1.6c0.4,0,0.7,0.1,1.1,0.2C216.3,178.3,216.9,179.2,216.9,180.1z
			 M192,170.9l2.9-7.8c-0.2-5.6-3.4-8.9-7.8-8.9c-11.3,0.2-21.7,26.6-21.9,38.7c0,5.4,1.1,8.9,4.8,8.9
			C179.9,201.8,187.1,183.5,192,170.9z"/>
		<path class="st0" d="M255.8,180.3c0,0.4-0.1,0.6-0.2,1c-7.5,16.7-16.3,25.7-30.5,25.7c-9,0-14.8-6.7-14.8-16.8
			c0-19.1,15.3-41.2,27.8-41.2c7,0,10.4,4.8,10.4,11.5c0,5.5-2.7,11.2-5.5,11.2c-1.6,0-2.6-0.9-2.6-2.5c0-1.7,2.9-3.8,2.9-8.7
			c0-4.3-1.6-6.4-5.3-6.4c-9.6,0-22.7,21.5-22.7,36.2c0,6.9,3.9,11.5,9.8,11.5c11.9,0,19.5-8.6,25.6-22.7c0.6-1.2,2.1-1.8,3.4-1.3
			C255.2,178.3,255.8,179.3,255.8,180.3z"/>
		<path class="st0" d="M285,199.2c-3.4,0-6.6-1.1-9.3-3.3C271.1,202,264.9,207,259,207c-8,0-10.7-5.3-10.7-12.4
			c0-14.2,6.4-26.1,10.4-32.7c5.2-8.6,11.2-12.9,17.3-12.9c8.1,0.2,12.3,5.8,12.3,13.1c0,7.7-3.9,19.7-9.6,29.3
			c1.3,1.7,3.4,2.6,6.2,2.6c5.2,0,9.4-4.7,13.7-14.8c0.4-1,1.3-1.6,2.3-1.6c1.8,0,3.2,1.8,2.5,3.6
			C298.1,193.5,292.4,199.2,285,199.2z M277.5,180.9c-0.4,1-0.4,2-0.5,2.8c3.8-7.6,6.1-16.1,6.1-21.7c0-5.2-3.1-7.8-7.2-7.8
			c-4.7,0-9.1,4.3-12.6,10.4c-3.2,5.3-9.7,17.2-9.7,29.8c0,4.4,1.5,7.5,5.4,7.5c4.5,0,9.7-4.9,13.7-10.7c-1.3-3.2-1.1-8.6-0.2-11.7
			c0.2-1.2,1.3-2,2.6-2C276.8,177.6,278,179.2,277.5,180.9z"/>
		<path class="st0" d="M352.7,180.1c0,0.4-0.1,0.7-0.2,1.1c-8.3,18.5-14.1,25.7-22.4,25.7c-5.9,0-8.8-4.3-8.8-10.3
			c0-11.5,9.6-25.7,9.6-36.4c0-3.6-1.6-6.4-6.4-6.4c-7.5,0-16.8,16.6-20.7,27l-8.6,24.3c-0.5,1.5-2,2.1-3.3,1.7
			c-1.3-0.5-2.1-1.8-1.6-3.3c6.4-17.7,14.1-39.8,18.9-53c0.4-1.1,1.3-1.7,2.5-1.7c1.8,0,3.1,1.8,2.5,3.4l-1,2.4
			c3.6-3.7,7.4-6,11.4-6c8.8,0,11.5,5,11.5,11.5c0,10.9-9.6,27-9.6,36.4c0,3.6,1.1,5.2,3.7,5.2c5.8,0,10.2-6.5,17.7-22.7
			c0.5-1,1.3-1.6,2.3-1.6c0.4,0,0.7,0.1,1.1,0.2C352.1,178.3,352.7,179.2,352.7,180.1z"/>
		<path class="st0" d="M378.2,180.1c0,0.4-0.1,0.7-0.2,1.1c-7.1,15.3-14,25.7-25.3,25.7c-5.9,0-9.1-4.4-9.1-10.3
			c0-4.5,3.1-15.2,7-25.3l6.2-17.5h-7.7c-1.5,0-2.6-1.1-2.6-2.6c0-1.3,1.1-2.6,2.6-2.6h9.4c0.2-0.5,6.2-17.8,6.4-18.3
			c0.4-1.1,1.4-1.7,2.5-1.7c1.8,0,3.1,1.8,2.5,3.4c0.4-0.7-4.9,14.2-5.8,16.6h8.2c1.5,0,2.6,1.2,2.6,2.6c0,1.5-1.1,2.6-2.6,2.6
			h-10.1c-0.7,2.3-2.8,8-6.9,19.4c-5,14.2-6.6,19.9-6.6,23.4c0,3.3,1.5,5.2,3.9,5.2c8.8,0,14.7-10.2,20.5-22.8
			c0.5-0.9,1.5-1.5,2.5-1.5c0.4,0,0.7,0.1,1.1,0.2C377.6,178.3,378.2,179.2,378.2,180.1z"/>
		<path class="st0" d="M417.1,180.3c0,0.4-0.1,0.6-0.2,1c-8,17.7-17.3,25.7-29.7,25.7c-10.2,0-16.3-6.7-16.1-16.8
			c0.7-15.7,13.5-41.2,28-41.2c6.1,0,10.4,3.2,10.4,9.1c0,13-18.3,20.8-31.9,24.2c-0.9,3.2-1.2,5.5-1.3,8.1c-0.2,7,3.7,11.3,11,11.5
			c10.1,0.2,17.9-6.9,24.8-22.7c0.6-1.2,2.1-1.8,3.4-1.3C416.5,178.3,417.1,179.3,417.1,180.3z M404.4,158.1c0-3.3-2.6-3.9-5.3-3.9
			c-8.5,0-15.6,12.7-19.5,22.2C389.8,173.2,404.4,167.2,404.4,158.1z"/>
	</g>
	<g>
		<g>
			<path class="st1" d="M449.8,75.9c0,0,25.6-72.3,112.2-18.1C562,57.8,478.7,91.3,449.8,75.9z"/>
		</g>
		<g>
			<path class="st1" d="M445.8,76.1c0,0,13.2-63.2-98.9-59.4C347,16.7,381.9,60.7,445.8,76.1z"/>
		</g>
		<g>
			<path class="st1" d="M441.3,74.9c0,0,1,6.7,1.6,9.1c0.6,2.4,1.6,7.9,0.4,13.5S432,159.7,448.8,252l8.3-1.7
				c0,0-9.4-44.9-10.8-78.7c-1.3-33.4,0.1-53.4,3.1-84c0,0,2.5-8.3,6.5-9.3l-6.1-2.3c0,0-0.2,2.1-0.8,3.3c-0.6,1.3-2.8,3.7-3.2-3.1
				C445.5,69.2,440.9,72.4,441.3,74.9z"/>
		</g>
		<g>
			<path class="st2" d="M449.8,75.9c0,0,36.9-27.4,79.4-20.7C529.3,55.2,484.7,57.7,449.8,75.9z"/>
		</g>
		<g>
			<path class="st2" d="M445.8,76.1c0,0-9.1-30.9-48.9-39.8C396.9,36.3,427.1,48.4,445.8,76.1z"/>
		</g>
	</g>
	<g>
		<path class="st1" d="M45.1,285.7c-4.1,0-8.2-1.3-11.3-3.8c-2.8-2.3-3.3-4.8-3.2-6.5c0.3-5,5.8-8.7,6.9-9.4
			c0.8-0.5,9-5.9,26.4-11.7c4.7-23.1-3.6-40.7-24.6-52.5c-41.7-23.3-32.6-52.4-32.2-53.6c0.5-1.6,2.2-2.4,3.7-1.9
			c1.5,0.5,2.4,2.2,1.9,3.7l0,0c-0.3,1-7.7,25.8,29.5,46.6c16.1,9,32.8,25.8,28.1,55.6c31.1-9.2,86-18.2,172.6-9.8
			c146.1,14.3,254.2,0.5,255.2,0.4c1.7-0.2,3.1,0.9,3.3,2.5c0.2,1.6-0.9,3.1-2.5,3.3c-1.1,0.1-109.7,14-256.6-0.3
			c-88.2-8.6-143.5,1.4-173.4,10.7c-0.6,2.6-1.5,5.3-2.4,8l-0.3,0.8c-3,8.9-8.6,14.9-15.8,17C48.7,285.4,46.9,285.7,45.1,285.7z
			 M62.1,261.4c-14.6,5.1-21.3,9.4-21.5,9.6c-1.8,1.1-4.2,3.4-4.2,4.8c0,0.2,0,0.7,1,1.5c3,2.4,7.4,3.2,11.3,2
			c5.2-1.5,9.5-6.2,11.9-13.2l0.3-0.8C61.3,263.9,61.7,262.6,62.1,261.4z"/>
	</g>
</g>
</svg>
